<?xml version="1.0" encoding="UTF-8"?>
<svg id="Layer_1" data-name="Layer 1" xmlns="http://www.w3.org/2000/svg" version="1.1" viewBox="0 0 432 144">
  <defs>
    <style>
      .cls-1 {
        fill: #006937;
      }

      .cls-1, .cls-2, .cls-3 {
        stroke-width: 0px;
      }

      .cls-2 {
        fill: #ff671d;
      }

      .cls-3 {
        fill: #000;
        fill-rule: evenodd;
      }
    </style>
  </defs>
  <path class="cls-1" d="M104.9,64.8c4.7-17.2-1.9-33-13.6-42.6-14.1-11.7-34.2-12.6-49.2-2.1-18.4,12.3-24.3,37.8-11.4,57.2.3.4.6.9.9,1.3.7,1.1.7,1.3-.1,2.3-4.7,5.7-7.5,11-12,18.7-.6,1.1-.6,1.3.2,1.3,2,.2,2.4,0,3.4-1.8,6.2-10.5,17.6-25.7,25.3-39.5,2.9-5.2,9.2-14.3,10.4-15.1,3.6-2.3,7.4-1.4,10.6,3.2,2.7,3.9,3,4.5,6.3,6.6.9.6,1.4.5,2.7-1,2.8-3.2,4.1-5.8,6.8-3.7,2.2,1.7,12,12.6,14.4,16.1,1.5,2.2,3.1,4.7,5,6.5h4.8c-1.3-1.7-3.5-3.3-4.3-5.2-.2-.5-.2-1.2-.1-2.2ZM81.9,45.4c-1.1.4-2.3,1.3-3.3,2.8-1.3,1.9-1.6,3-2.5,2.6-1.1-.4-4.8-5.1-7-7.7-2.8-3.2-7.9-4.6-11.7-1.7-.9.7-1.5,1.5-2.1,2.5-4.5,6.7-11.1,16.5-16.7,25.1-1.5,2.3-2.9,4.4-4.2,6.7-.6,1.1-.8,1.1-1.4,0,0,0,0,0,0,0-12-19.2-5.2-44.4,14.5-55.1,28.4-15.1,61.5,9.6,55.3,41.1,0,.4-.2.8-.3,1.1-.3.9-.4.9-1.3-.1-4-4.7-14.2-18.8-19.3-17.2Z"/>
  <path class="cls-2" d="M102.5,62.7c.1-.4.2-.7.3-1.1,6.3-31.5-26.9-56.2-55.3-41.1-19.7,10.7-26.5,35.9-14.5,55.1,0,0,0,0,0,0,.6,1.1.8,1.1,1.4,0,1.3-2.3,2.7-4.5,4.2-6.7,5.6-8.5,12.2-18.3,16.7-25.1.6-.9,1.2-1.8,2.1-2.5,3.8-2.9,8.9-1.5,11.7,1.7,2.2,2.6,5.9,7.3,7,7.7.9.3,1.1-.7,2.5-2.6,1-1.4,2.2-2.4,3.3-2.8,5-1.6,15.3,12.5,19.3,17.2.8,1,1,1,1.3.1Z"/>
  <g>
    <path class="cls-3" d="M46.7,91.8l-2.5,5.4.6.4c.2-.2.4-.4.6-.4.3,0,.7.1,1.2.3.4.2,1.1.5,1.8.8.8.3,1.7.5,2.9.7,1.2.2,2.6.3,4.3.3s2.5,0,4-.3c1.4-.2,2.7-.6,4-1.1,1.2-.6,2.3-1.3,3.1-2.3.8-1,1.2-2.3,1.2-3.8s-.3-2.4-.8-3.3c-.5-.8-1.2-1.5-2.1-2-.9-.5-1.8-.9-2.9-1.1-1.1-.2-2.2-.4-3.3-.5-1.1,0-2.3-.2-3.3-.2-1.1,0-2.1-.2-2.9-.4-.9-.2-1.5-.4-2.1-.8-.5-.4-.8-.9-.8-1.6s.2-.9.6-1.3c.4-.3.8-.6,1.4-.8.6-.2,1.2-.4,1.9-.5.7-.1,1.4-.2,2-.2s1.7,0,2.6.2c.9.2,1.7.4,2.4.6.7.3,1.4.6,2,.9.6.3,1,.7,1.2,1.1.2.3.3.6.4,1l.4.2,3.1-5.6-.5-.4c-.2.2-.5.3-.9.3s-.9-.1-1.5-.4c-.6-.2-1.3-.5-2.2-.8-.9-.3-1.9-.5-3-.8-1.2-.2-2.5-.4-4.1-.4s-3.5.2-4.8.6c-1.4.4-2.5,1-3.4,1.7-.9.7-1.6,1.5-2,2.4-.4.9-.7,1.8-.7,2.7,0,1.4.3,2.5.8,3.3.5.9,1.2,1.5,2.1,2,.9.5,1.8.8,2.9,1.1,1.1.2,2.2.4,3.3.4,1.1,0,2.3.2,3.3.2,1.1,0,2.1.1,2.9.3.9.2,1.5.4,2.1.7.5.3.8.8.8,1.5s-.3,1.2-.9,1.7c-.6.4-1.2.7-2,1-.8.2-1.6.4-2.4.5-.8,0-1.5.1-2,.1s-1.5,0-2.3-.2c-.9-.2-1.7-.4-2.5-.7-.8-.3-1.5-.6-2.1-.9-.6-.3-1-.7-1.2-1.1-.1-.2-.2-.4-.2-.7l-.4-.2h0Z"/>
    <path class="cls-3" d="M72.3,98.5v.7h6.3v-.7c-.7,0-1-.2-1-.7v-17.3c0-.5.3-.7,1-.7v-.7h-6.3v.7c.7,0,1,.2,1,.7v17.3c0,.5-.3.7-1,.7h0Z"/>
    <path class="cls-3" d="M102.3,83.2h.7v-5h-.7c0,.3-.1.5-.3.7-.2.2-.6.2-1.1.2h-17.4v.7c.2,0,.3,0,.5.2.1.1.2.3.2.5v17.3c0,.2,0,.4-.2.5-.1.1-.3.2-.5.2v.7h17.8c.4,0,.7,0,.9,0,.2,0,.4.3.4.6h.7v-5.2h-.7c0,.3-.1.5-.4.7-.2.2-.6.3-.9.3h-12.7v-5.3h7.5c.5,0,.9,0,1.2.2.3.2.4.5.4,1.1h.7v-5.9h-.7c0,.6-.1.9-.4,1.1-.3.1-.7.2-1.2.2h-7.5v-4.7h12.4c.5,0,.9,0,1.1.2.2.1.3.3.3.6h0Z"/>
    <path class="cls-3" d="M119.1,88h-6.6v-5.6h6.6c.9,0,1.7,0,2.3.2.6.1,1.1.3,1.4.6.4.3.6.6.8.9.2.3.2.7.2,1.1s0,.8-.2,1.1c-.2.3-.4.6-.8.9-.4.3-.8.5-1.4.6-.6.1-1.4.2-2.3.2h0ZM120.1,79.1h-13v.7c.7,0,1.1.2,1.1.7v17.3c0,.5-.4.7-1.1.7v.7h6.6v-.7c-.4,0-.7,0-.9-.2-.2-.1-.2-.3-.2-.5v-6.8h5.5l4.2,6c.2.3.4.5.5.7.1.2.2.3.2.4s0,.2-.2.3c-.2,0-.4.1-.6.1v.7h7.1v-.7c-.2,0-.4,0-.7,0-.2,0-.5-.2-.6-.5l-5.1-7.2c1.7-.3,3-.9,4-1.8,1-.9,1.5-2.2,1.5-3.9s-.2-2-.6-2.8c-.4-.8-.9-1.4-1.6-1.8-.7-.5-1.6-.8-2.6-1-1-.2-2.1-.3-3.3-.3h0Z"/>
    <path class="cls-3" d="M145,88h-6.6v-5.6h6.6c.9,0,1.7,0,2.3.2.6.1,1.1.3,1.4.6.4.3.6.6.8.9.2.3.2.7.2,1.1s0,.8-.2,1.1c-.2.3-.4.6-.8.9-.4.3-.8.5-1.4.6-.6.1-1.4.2-2.3.2h0ZM146,79.1h-13v.7c.7,0,1.1.2,1.1.7v17.3c0,.5-.4.7-1.1.7v.7h6.6v-.7c-.4,0-.7,0-.9-.2-.2-.1-.2-.3-.2-.5v-6.8h5.5l4.2,6c.2.3.4.5.5.7.1.2.2.3.2.4s0,.2-.2.3c-.2,0-.4.1-.6.1v.7h7.1v-.7c-.2,0-.4,0-.7,0-.2,0-.5-.2-.6-.5l-5.1-7.2c1.7-.3,3-.9,4-1.8,1-.9,1.5-2.2,1.5-3.9s-.2-2-.6-2.8c-.4-.8-.9-1.4-1.6-1.8-.7-.5-1.6-.8-2.6-1-1-.2-2.1-.3-3.3-.3h0Z"/>
    <path class="cls-3" d="M164.2,91.4h6.8l-3.2-7.1-3.6,7.1h0ZM156.6,99.2v-.7c.3,0,.6-.2.8-.5.2-.3.4-.6.6-1l7.1-14.8c.2-.3.3-.6.5-.9.1-.3.2-.5.2-.7s0-.4-.3-.5c-.2-.1-.4-.2-.6-.2v-.7h6.4v.7c-.2,0-.4.1-.5.2-.2,0-.3.3-.3.6s0,.4.1.6c0,.2.2.5.4.8l7.9,15.5c.1.3.3.5.5.6.2.1.5.3.7.4v.7h-6.7v-.7c.1,0,.2,0,.4-.1.2,0,.2-.2.2-.3,0-.3-.1-.6-.3-1l-1.4-2.8h-9.3l-1.4,2.7c-.3.5-.4.9-.4,1.1s.2.4.7.4v.7h-5.4Z"/>
    <path class="cls-3" d="M217.2,100h.8v-6.1h-.8c0,.4-.1.6-.4.9-.3.2-.6.3-1.1.3h-14.9v-17.9c0-.5.4-.8,1.3-.8v-.8h-7.7v.8c.9,0,1.3.3,1.3.8v20.4c0,.5-.4.8-1.3.8v.8h21.4c.4,0,.8,0,1.1,0,.3,0,.4.3.4.8h0Z"/>
    <path class="cls-3" d="M225.3,91.4h6.8l-3.2-7.1-3.6,7.1h0ZM217.7,99.2v-.7c.3,0,.6-.2.8-.5.2-.3.4-.6.6-1l7.1-14.8c.2-.3.3-.6.5-.9.1-.3.2-.5.2-.7s0-.4-.3-.5c-.2-.1-.4-.2-.6-.2v-.7h6.4v.7c-.2,0-.4.1-.5.2-.2,0-.3.3-.3.6s0,.4.1.6c0,.2.2.5.4.8l7.9,15.5c.1.3.3.5.5.6.2.1.5.3.7.4v.7h-6.7v-.7c.1,0,.2,0,.4-.1.2,0,.2-.2.2-.3,0-.3-.1-.6-.3-1l-1.4-2.8h-9.3l-1.4,2.7c-.3.5-.4.9-.4,1.1s.2.4.7.4v.7h-5.4Z"/>
    <path class="cls-3" d="M244.2,98.5v.7h5.6v-.7c-.6,0-.9-.2-.9-.7v-12.7l11.6,12.1c.4.4.6.7.6.9s-.2.3-.5.3v.7h6.2v-.7c-.5,0-.7-.2-.7-.7v-17.3c0-.5.2-.7.7-.7v-.7h-5.8v.7c.7,0,1,.2,1,.7v12.1l-10.9-11.4c-.5-.5-.8-.9-.8-1.1s.1-.4.3-.4v-.7h-6.5v.7c.5,0,.7.2.7.7v17.3c0,.5-.2.7-.7.7h0Z"/>
    <path class="cls-3" d="M282.7,95.9h-5.9v-13.5h5.9c1.2,0,2.2.1,3.1.3.9.2,1.6.6,2.2,1.1.6.5,1,1.2,1.3,2.1.3.9.4,2,.4,3.3s-.1,2.4-.4,3.3c-.3.9-.7,1.6-1.3,2.1-.6.5-1.3.9-2.2,1.1-.9.2-1.9.3-3.1.3h0ZM284.2,79.1h-12.7v.7c.6,0,.9.2.9.7v17.3c0,.5-.3.7-.9.7v.7h12.7c1.4,0,2.7-.2,3.9-.6,1.2-.4,2.3-1,3.1-1.9.9-.8,1.6-1.9,2.1-3.1.5-1.3.8-2.7.8-4.4s-.3-3.2-.8-4.4c-.5-1.3-1.2-2.3-2.1-3.1-.9-.8-1.9-1.4-3.1-1.8-1.2-.4-2.5-.6-3.9-.6h0Z"/>
    <path class="cls-3" d="M299.4,92.9l-2.1,4.6.5.3c.2-.2.3-.3.5-.3.3,0,.6,0,1,.3.4.2.9.4,1.5.6.6.2,1.5.4,2.4.6,1,.2,2.2.2,3.6.2s2.2,0,3.4-.2c1.2-.2,2.3-.5,3.4-1,1-.5,1.9-1.1,2.6-2,.7-.8,1-1.9,1-3.2s-.2-2.1-.7-2.8c-.4-.7-1-1.3-1.8-1.7-.7-.4-1.5-.7-2.5-.9-.9-.2-1.9-.3-2.8-.4-1,0-1.9-.1-2.8-.2-.9,0-1.8-.2-2.5-.3-.7-.2-1.3-.4-1.8-.7-.4-.3-.7-.8-.7-1.4s.2-.8.5-1.1c.3-.3.7-.5,1.2-.7.5-.2,1-.3,1.6-.4.6,0,1.2-.1,1.7-.1s1.5,0,2.2.2c.7.1,1.4.3,2.1.6.6.2,1.2.5,1.7.8.5.3.8.6,1,.9.2.2.3.5.3.9l.4.2,2.6-4.8-.5-.3c-.2.2-.4.2-.8.2s-.7-.1-1.2-.3c-.5-.2-1.1-.4-1.8-.6-.7-.2-1.6-.4-2.6-.6-1-.2-2.2-.3-3.5-.3s-2.9.2-4.1.6c-1.2.4-2.1.8-2.9,1.4-.8.6-1.3,1.3-1.7,2-.4.8-.6,1.5-.6,2.3,0,1.2.2,2.1.7,2.8.4.7,1,1.3,1.8,1.7.7.4,1.6.7,2.5.9.9.2,1.9.3,2.8.4,1,0,1.9.1,2.8.2.9,0,1.7.1,2.5.2.7.1,1.3.3,1.7.6.4.3.7.7.7,1.3s-.2,1.1-.7,1.4c-.5.4-1.1.6-1.7.8-.7.2-1.3.3-2,.4-.7,0-1.2,0-1.7,0s-1.2,0-2-.2c-.7-.1-1.4-.3-2.1-.6-.7-.2-1.3-.5-1.8-.8-.5-.3-.9-.6-1-.9,0-.2-.2-.4-.2-.6l-.4-.2h0Z"/>
    <path class="cls-3" d="M342.9,96.4l.3-.3-2.5-4-.5.3c.1.1.2.3.2.5,0,.3-.2.7-.7,1-.5.4-1.1.7-1.8,1-.7.3-1.5.5-2.4.7-.9.2-1.7.3-2.6.3s-2.1-.2-3.1-.5c-1-.3-1.8-.7-2.6-1.3-.7-.6-1.3-1.3-1.7-2.2-.4-.9-.7-1.8-.7-2.9s.2-2.1.7-2.9c.4-.9,1-1.6,1.7-2.2.7-.6,1.6-1,2.6-1.3,1-.3,2-.5,3.1-.5s1.3,0,2.1.2c.7.2,1.5.3,2.1.6.7.2,1.2.5,1.7.8.5.3.7.6.8.9,0,.1,0,.2,0,.3,0,0,0,.2,0,.2l.4.3,3-4.6-.6-.5c0,0-.1.2-.2.3,0,.1-.2.2-.3.2s-.4-.1-.8-.3c-.5-.2-1.1-.4-1.9-.6-.8-.2-1.7-.4-2.8-.6-1.1-.2-2.2-.3-3.5-.3s-3.1.2-4.6.6c-1.5.4-2.8,1.1-3.9,1.9-1.1.9-2,1.9-2.7,3.2-.7,1.3-1,2.8-1,4.4s.3,3.2,1,4.5c.7,1.3,1.6,2.3,2.7,3.2,1.1.9,2.4,1.5,3.9,1.9,1.5.4,3,.6,4.6.6s2.4-.1,3.5-.4c1.1-.3,2.1-.6,3-1,.9-.4,1.6-.7,2.2-1,.6-.3.9-.5,1.1-.5s.1,0,.2,0c0,0,.1,0,.2,0h0Z"/>
    <path class="cls-3" d="M352.8,91.4h6.8l-3.2-7.1-3.6,7.1h0ZM345.2,99.2v-.7c.3,0,.6-.2.8-.5.2-.3.4-.6.6-1l7.1-14.8c.2-.3.3-.6.5-.9.1-.3.2-.5.2-.7s0-.4-.3-.5c-.2-.1-.4-.2-.6-.2v-.7h6.4v.7c-.2,0-.4.1-.5.2-.2,0-.3.3-.3.6s0,.4.1.6c0,.2.2.5.4.8l7.9,15.5c.1.3.3.5.5.6.2.1.5.3.7.4v.7h-6.7v-.7c.1,0,.2,0,.4-.1.2,0,.2-.2.2-.3,0-.3-.1-.6-.3-1l-1.4-2.8h-9.3l-1.4,2.7c-.3.5-.4.9-.4,1.1s.2.4.7.4v.7h-5.4Z"/>
    <path class="cls-3" d="M385,87.5h-8.1v-4.9h8.1c.8,0,1.6.2,2.2.5.6.3.9,1,.9,1.9s-.3,1.6-.9,1.9c-.6.3-1.3.5-2.2.5h0ZM371.1,99.2h7v-.7c-.8,0-1.2-.2-1.2-.7v-6.8h7.7c2.4,0,4.4-.5,5.8-1.4,1.4-.9,2.1-2.4,2.1-4.6s-.7-3.7-2.1-4.6c-1.4-.9-3.3-1.4-5.8-1.4h-13.4v.7c.9,0,1.4.2,1.4.7v17.3c0,.5-.5.7-1.4.7v.7h0Z"/>
    <path class="cls-3" d="M414.1,83.2h.7v-5h-.7c0,.3-.1.5-.3.7-.2.2-.6.2-1.1.2h-17.4v.7c.2,0,.3,0,.5.2.1.1.2.3.2.5v17.3c0,.2,0,.4-.2.5-.1.1-.3.2-.5.2v.7h17.8c.4,0,.7,0,.9,0,.2,0,.4.3.4.6h.7v-5.2h-.7c0,.3-.1.5-.4.7-.2.2-.6.3-.9.3h-12.7v-5.3h7.5c.5,0,.9,0,1.2.2.3.2.4.5.4,1.1h.7v-5.9h-.7c0,.6-.1.9-.4,1.1-.3.1-.7.2-1.2.2h-7.5v-4.7h12.4c.5,0,.9,0,1.1.2.2.1.3.3.3.6h0Z"/>
    <g>
      <path class="cls-3" d="M57.5,129.6h-7v-15.9h7c1.4,0,2.6.1,3.7.4,1,.2,1.9.7,2.6,1.3.7.6,1.2,1.4,1.5,2.4.3,1,.5,2.3.5,3.9s-.2,2.8-.5,3.9c-.3,1-.9,1.8-1.5,2.4s-1.6,1-2.6,1.3c-1,.2-2.3.4-3.7.4h0ZM59.3,109.8h-14.9v.8c.7,0,1,.3,1,.8v20.4c0,.5-.3.8-1,.8v.8h14.9c1.6,0,3.2-.2,4.6-.7,1.4-.5,2.7-1.2,3.7-2.2,1-1,1.9-2.2,2.5-3.7.6-1.5.9-3.2.9-5.2s-.3-3.7-.9-5.2c-.6-1.5-1.4-2.7-2.5-3.7-1-1-2.3-1.7-3.7-2.2-1.4-.5-3-.7-4.6-.7h0Z"/>
      <path class="cls-3" d="M93.7,117.5h.7v-5h-.7c0,.3-.1.5-.3.7-.2.2-.6.2-1.1.2h-17.4v.7c.2,0,.3,0,.5.2.1.1.2.3.2.5v17.3c0,.2,0,.4-.2.5-.1.1-.3.2-.5.2v.7h17.8c.4,0,.7,0,.9,0,.2,0,.4.3.4.6h.7v-5.2h-.7c0,.3-.1.5-.4.7-.2.2-.6.3-.9.3h-12.7v-5.3h7.5c.5,0,.9,0,1.2.2.3.2.4.5.4,1.1h.7v-5.9h-.7c0,.6-.1.9-.4,1.1-.3.1-.7.2-1.2.2h-7.5v-4.7h12.4c.5,0,.9,0,1.1.2.2.1.3.4.3.6h0Z"/>
      <path class="cls-3" d="M120,114.1v-.7h-6.7v.7c.7,0,1.1.2,1.1.6s-.1.6-.4,1.1c-.3.5-.6,1.1-.9,1.8l-4.8,10.3-4.9-10.5c-.3-.6-.6-1.2-.8-1.6-.2-.4-.3-.8-.3-1.1s0-.4.2-.5c.2,0,.3-.1.5-.1v-.7h-6.8v.7c.4.1.8.3,1,.4.2.1.4.3.5.6l6.9,14.9c.3.6.5,1.1.7,1.5s.3.7.3.8c0,.3-.1.4-.3.5v.7h5.8v-.7c-.1,0-.2-.2-.2-.2,0,0,0-.2,0-.3s0-.3.2-.6c.2-.3.3-.7.6-1.2l6.7-14.8c.1-.2.3-.5.5-.9.2-.4.6-.6,1.1-.6h0Z"/>
      <path class="cls-3" d="M141.3,117.5h.7v-5h-.7c0,.3-.1.5-.3.7-.2.2-.6.2-1.1.2h-17.4v.7c.2,0,.3,0,.5.2.1.1.2.3.2.5v17.3c0,.2,0,.4-.2.5-.1.1-.3.2-.5.2v.7h17.8c.4,0,.7,0,.9,0,.2,0,.4.3.4.6h.7v-5.2h-.7c0,.3-.1.5-.4.7-.2.2-.6.3-.9.3h-12.7v-5.3h7.5c.5,0,.9,0,1.2.2.3.2.4.5.4,1.1h.7v-5.9h-.7c0,.6-.1.9-.4,1.1-.3.1-.7.2-1.2.2h-7.5v-4.7h12.4c.5,0,.9,0,1.1.2.2.1.3.4.3.6h0Z"/>
      <path class="cls-3" d="M164.9,134.2h.7v-5.2h-.7c0,.3-.1.5-.4.7-.2.2-.6.3-.9.3h-12.7v-15.2c0-.5.4-.7,1.1-.7v-.7h-6.6v.7c.8,0,1.1.2,1.1.7v17.3c0,.5-.4.7-1.1.7v.7h18.2c.4,0,.7,0,.9,0,.2,0,.4.3.4.6h0Z"/>
      <path class="cls-3" d="M179.5,116.7c1,0,1.9.2,2.9.5,1,.3,1.8.7,2.6,1.3.8.6,1.4,1.3,1.9,2.1.5.8.7,1.8.7,2.9s-.2,2-.7,2.9c-.5.8-1.1,1.5-1.9,2.1-.8.6-1.6,1-2.6,1.3-1,.3-1.9.5-2.9.5s-1.9-.2-2.9-.5c-1-.3-1.8-.7-2.6-1.3-.8-.6-1.4-1.3-1.9-2.1-.5-.8-.7-1.8-.7-2.9s.2-2,.7-2.9c.5-.8,1.1-1.5,1.9-2.1.8-.6,1.6-1,2.6-1.3,1-.3,1.9-.5,2.9-.5h0ZM179.5,113.2c-1.4,0-2.8.2-4.3.6-1.4.4-2.8,1-4,1.9-1.2.8-2.2,1.9-2.9,3.2-.8,1.3-1.1,2.8-1.1,4.6s.4,3.3,1.1,4.6c.8,1.3,1.7,2.3,2.9,3.2,1.2.8,2.5,1.4,4,1.8,1.4.4,2.9.6,4.3.6s2.8-.2,4.3-.6c1.5-.4,2.8-1,4-1.8,1.2-.8,2.2-1.9,2.9-3.2.8-1.3,1.1-2.8,1.1-4.6s-.4-3.3-1.1-4.6c-.8-1.3-1.7-2.3-2.9-3.2-1.2-.8-2.5-1.5-4-1.9-1.4-.4-2.9-.6-4.3-.6h0Z"/>
      <path class="cls-3" d="M209.5,121.8h-8.1v-4.9h8.1c.8,0,1.6.2,2.2.5.6.3.9,1,.9,1.9s-.3,1.6-.9,1.9c-.6.3-1.3.5-2.2.5h0ZM195.6,133.4h7v-.7c-.8,0-1.2-.2-1.2-.7v-6.8h7.7c2.4,0,4.4-.5,5.8-1.4,1.4-.9,2.1-2.4,2.1-4.6s-.7-3.7-2.1-4.6c-1.4-.9-3.3-1.4-5.8-1.4h-13.4v.7c.9,0,1.4.2,1.4.7v17.3c0,.5-.5.7-1.4.7v.7h0Z"/>
      <path class="cls-3" d="M219.9,132.8v.7h5.7v-.7c-.7,0-1.1-.2-1.1-.7v-12.7h0l7.5,14.1h.1l7.7-14h0v12.7c0,.5-.3.7-1,.7v.7h6v-.7c-.2,0-.4,0-.5-.2-.2-.1-.2-.3-.2-.5v-17.4c0-.2,0-.4.2-.5.2,0,.3-.1.5-.1v-.7h-7.1v.7c.3,0,.5.1.5.4s0,.3-.1.5c0,.2-.2.5-.4.8l-5.5,9.8-5.5-9.9c-.1-.2-.2-.4-.3-.6-.1-.2-.2-.4-.2-.5s0-.3.2-.3c.1,0,.3-.1.4-.1v-.7h-7.1v.7c.2,0,.4,0,.5.1.2,0,.2.2.2.5v17.4c0,.2,0,.4-.2.5-.2.1-.3.2-.5.2h0Z"/>
      <path class="cls-3" d="M268.8,117.5h.7v-5h-.7c0,.3-.1.5-.3.7-.2.2-.6.2-1.1.2h-17.4v.7c.2,0,.3,0,.5.2.1.1.2.3.2.5v17.3c0,.2,0,.4-.2.5-.1.1-.3.2-.5.2v.7h17.8c.4,0,.7,0,.9,0,.2,0,.4.3.4.6h.7v-5.2h-.7c0,.3-.1.5-.4.7-.2.2-.6.3-.9.3h-12.7v-5.3h7.5c.5,0,.9,0,1.2.2.3.2.4.5.4,1.1h.7v-5.9h-.7c0,.6-.1.9-.4,1.1-.3.1-.7.2-1.2.2h-7.5v-4.7h12.4c.5,0,.9,0,1.1.2.2.1.3.4.3.6h0Z"/>
      <path class="cls-3" d="M274,132.8v.7h5.6v-.7c-.6,0-.9-.2-.9-.7v-12.7l11.6,12.1c.4.4.6.7.6.9s-.2.3-.5.3v.7h6.2v-.7c-.5,0-.7-.2-.7-.7v-17.3c0-.5.2-.7.7-.7v-.7h-5.8v.7c.7,0,1,.2,1,.7v12.1l-10.9-11.4c-.5-.5-.8-.9-.8-1.1s.1-.4.3-.4v-.7h-6.5v.7c.5,0,.7.2.7.7v17.3c0,.5-.2.7-.7.7h0Z"/>
      <path class="cls-3" d="M312.4,132.1v-15.2h6.3c.2,0,.5,0,.7.2.2.1.3.4.3.7h.7v-5.3h-.7c0,.4-.1.6-.3.7-.2.1-.4.2-.7.2h-16.9c-.2,0-.4,0-.7-.2-.2-.1-.3-.4-.3-.7h-.7v5.3h.7c0-.4.1-.6.3-.7.2-.1.4-.2.7-.2h6.3v15.2c0,.2,0,.4-.2.5-.1.1-.3.2-.5.2v.7h5.9v-.7c-.6,0-.8-.2-.8-.7h0Z"/>
      <path class="cls-3" d="M318.7,137.9v1.2c.8-.2,1.6-.5,2.3-1,.7-.5,1.4-1,1.9-1.6.6-.6,1-1.3,1.4-2.1.3-.8.5-1.5.5-2.3s-.3-2-.8-2.7c-.5-.7-1.3-1.1-2.3-1.1s-1.2.3-1.8.8c-.5.5-.8,1.2-.8,1.9s.2,1.4.7,1.8c.5.4,1,.6,1.7.6s.4,0,.6,0c.2,0,.4,0,.4.2,0,.5,0,.9-.3,1.4-.3.5-.6.9-1,1.3-.4.4-.8.7-1.3,1-.5.3-.9.5-1.3.6h0Z"/>
      <path class="cls-3" d="M342.2,132.6v.8h7.4v-.8c-.8,0-1.2-.3-1.2-.8v-20.4c0-.5.4-.8,1.2-.8v-.8h-7.4v.8c.8,0,1.2.3,1.2.8v20.4c0,.5-.4.8-1.2.8h0Z"/>
      <path class="cls-3" d="M355,132.8v.7h5.6v-.7c-.6,0-.9-.2-.9-.7v-12.7l11.6,12.1c.4.4.6.7.6.9s-.2.3-.5.3v.7h6.2v-.7c-.5,0-.7-.2-.7-.7v-17.3c0-.5.2-.7.7-.7v-.7h-5.8v.7c.7,0,1,.2,1,.7v12.1l-10.9-11.4c-.5-.5-.8-.9-.8-1.1s.1-.4.3-.4v-.7h-6.5v.7c.5,0,.7.2.7.7v17.3c0,.5-.2.7-.7.7h0Z"/>
      <path class="cls-3" d="M404,130.7l.3-.3-2.5-4-.5.3c.1.1.2.3.2.5,0,.3-.2.7-.7,1-.5.4-1.1.7-1.8,1-.7.3-1.6.5-2.4.7-.9.2-1.7.3-2.6.3s-2.1-.2-3.1-.5c-1-.3-1.8-.8-2.6-1.3-.7-.6-1.3-1.3-1.7-2.2-.4-.9-.6-1.8-.6-2.9s.2-2.1.6-2.9c.4-.9,1-1.6,1.7-2.2.7-.6,1.6-1,2.6-1.3,1-.3,2-.5,3.1-.5s1.3,0,2.1.2c.7.2,1.5.3,2.1.6.7.2,1.2.5,1.7.8.5.3.7.6.8.9,0,.1,0,.2,0,.3,0,0,0,.2,0,.2l.4.3,3-4.6-.6-.5c0,0-.1.2-.2.3,0,.1-.2.2-.3.2s-.4-.1-.8-.3c-.5-.2-1.1-.4-1.9-.6-.8-.2-1.7-.4-2.8-.6-1.1-.2-2.2-.3-3.5-.3s-3.1.2-4.6.6c-1.5.4-2.8,1.1-3.9,1.9-1.1.9-2,1.9-2.7,3.2-.7,1.3-1,2.8-1,4.4s.3,3.2,1,4.5c.7,1.3,1.6,2.3,2.7,3.2,1.1.9,2.4,1.5,3.9,1.9,1.5.4,3,.6,4.6.6s2.4-.1,3.5-.4c1.1-.3,2.1-.6,3-1,.9-.4,1.6-.7,2.2-1,.6-.3.9-.5,1.1-.5s.1,0,.2,0c0,0,.1,0,.2,0h0Z"/>
      <path class="cls-3" d="M408.6,131c0,.7.3,1.4.8,1.8.5.5,1.2.7,1.9.7s1.4-.2,1.9-.7c.5-.5.8-1.1.8-1.8s-.3-1.4-.8-1.9c-.5-.5-1.2-.8-1.9-.8s-1.4.3-1.9.8c-.5.5-.8,1.2-.8,1.9h0Z"/>
    </g>
  </g>
</svg>